<svg xmlns="http://www.w3.org/2000/svg" width="256" height="256" viewBox="0 0 100 100"><rect width="100" height="100" rx="20" fill="#587ef8"></rect><path d="M41.81 66.87L41.81 50.91L48.53 50.91L48.53 70.02Q44.89 73.03 40.06 74.64Q35.23 76.25 29.98 76.25L29.98 76.25Q22.56 76.25 16.61 73.00Q10.66 69.74 7.26 64.03Q3.87 58.33 3.87 51.19L3.87 51.19Q3.87 44.05 7.26 38.31Q10.66 32.57 16.64 29.35Q22.63 26.13 30.12 26.13L30.12 26.13Q36 26.13 40.80 28.05Q45.59 29.98 48.95 33.69L48.95 33.69L44.61 38.03Q38.73 32.36 30.40 32.36L30.40 32.36Q24.80 32.36 20.36 34.77Q15.91 37.19 13.39 41.49Q10.87 45.80 10.87 51.19L10.87 51.19Q10.87 56.51 13.39 60.81Q15.91 65.12 20.36 67.57Q24.80 70.02 30.33 70.02L30.33 70.02Q36.91 70.02 41.81 66.87L41.81 66.87ZM80.73 38.24Q87.80 38.24 91.97 42.33Q96.13 46.43 96.13 54.34L96.13 54.34L96.13 75.69L89.41 75.69L89.41 55.11Q89.41 49.72 86.82 46.99Q84.23 44.26 79.40 44.26L79.40 44.26Q73.94 44.26 70.79 47.44Q67.64 50.63 67.64 56.58L67.64 56.58L67.64 75.69L60.92 75.69L60.92 23.75L67.64 23.75L67.64 43.84Q69.74 41.18 73.14 39.71Q76.53 38.24 80.73 38.24L80.73 38.24Z" fill="#ffffff"></path></svg>